<?xml version="1.0" encoding="UTF-8"?>
<svg xmlns="http://www.w3.org/2000/svg" viewBox="724 0 724 1448" style="background: #f8f8f8;">
  <style>
    .muscle { fill: #B6BDC3; cursor: pointer; transition: fill 0.2s; }
    .muscle:hover { fill: #757782; }
  </style>
  
  <!-- 몸통 윤곽선 -->
  <g id="body-outline" stroke="#dfdfdf" stroke-width="2" fill="none">
    <path d="M1028.14 166.45c-6.92.51-6.41 9.57-6.41 9.57s5.03 12.62 12.32 22.18c.47.6.97.78 1.04.49.38-1.57.19 11.03.19 12.71.09 4.44 2.01 9.42 6.16 12.39.75.54 1.00 1.20 1.55 2.02 1.30 5.16.10 30.19-3.52 33.86-15.14 15.33-34.15 25.73-52.99 36.13-11.23 6.19-22.73 4.89-36.53 4.06-11.84-.71-20.21 2.08-30.14 9.04-13.90 9.74-30.49 28.30-32.62 45.91-2.39 19.86-.78 43.71 1.34 64.97"/>
  </g>
  
  <!-- 승모근 (Trapezius) -->
  <g id="upper_trapezius" class="muscle">
    <path d="M1071.06 308.94c5.60 4.92 6.96 17.83 7.43 24.88 1.00 14.87.97 29.84.93 44.68-.80 31.17-3.04 62.79-5.66 94-.02.36-.27.56-.59.51-.45-.03-.72-.42-.94-1.01-2.86-10.60-6.38-17.91-9.79-25.19-10.24-17.31-18.80-31.84-25.59-49.40-10.19-26.38-15.60-54.28-26.46-80.58-2.05-4.95-4.58-9.67-7.61-14.07-.20-.29-.10-.50.20-.60 8.31-2.85 17.00-4.25 25.48-4.85 5.54-.25 12.15.86 18.32 1.41 9.70.87 16.77 3.60 24.28 10.22z"/>
    <path d="M1163.98 302.12c.11.09.19.30.22.65-4.72 7.18-8.67 14.98-11.41 23.37-10.53 30.61-17.80 62.94-31.30 91.07-5.11 10.64-15.17 25.22-20.12 36.26-2.72 6.05-4.90 12.35-6.59 18.83-.17.52-.81.63-1.51-.12-2.85-30.10-4.48-60.54-5.52-90.99-.56-20.28-.74-39.92 2.75-60.43 1.04-6.13 2.77-9.98 7.85-13.85 9.80-7.48 18.02-7.73 30.10-9.11 12.02-1.39 23.92.40 35.53 4.32z"/>
  </g>
  
  <!-- 광배근 (Latissimus Dorsi) - Upper Back -->
  <g id="latissimus_dorsi" class="muscle">
    <path d="M987.06 381.44c-8.48-5.06-14.14-13.28-18.82-22.92-3.53-7.28-5.75-11.07-6.46-14.04-1.49-4.01 35.14-19.22 39.61-20.97 1.83-.71 3.18-.95 4.33-.72 4.33.96 6.61 9.96 7.46 13.70 3.62 15.93 9.25 37.42 14.65 55.74.52 1.80-.09 3.32-.88 4.39-5.37 5.50-34.69-12.08-39.89-15.18z"/>
    <path d="M1141.45 397.63c-1.19-.90-1.94-1.63-1.88-1.64-.47-1.98-.42-3.99.18-5.95 5.83-19.46 9.51-31.29 11.75-43.29 1.73-8.11 3.07-16.77 6.94-22.08 1.92-2.62 4.28-2.27 7.19-1.15 13.68 5.27 27.30 11.27 39.09 18.77.37.23.57.80.58 1.67-6.05 15.46-12.98 30.84-28.43 39.45-9.45 5.26-25.83 15.17-35.42 14.22z"/>
  </g>
  
  <!-- 척추기립근 (Erector Spinae) - Lower Back -->
  <g id="erector_spinae" class="muscle">
    <path d="M986.76 627.10c-3.13-13.13-7.31-49.77 7.27-58.07 2.40-1.37 4.80-.82 6.70 1.29 6.15 6.80 16.22 18.56 18.77 28.15.19.64.08 1.19-.11.98-2.51 4.53-9.96 8.09-15.83 11.36-3.65 2.04-7.56 5.13-11.33 10.52-1.23 1.56-2.60 4.30-4.50 6.06-.38.36-.79.09-.97-.29z"/>
    <path d="M1151.19 603.31c-3.59-2.25-2.84-4.90-2.19-9.05 5.35-9.48 11.89-17.86 17.88-24.62 3.49-3.69 9.04.89 10.97 3.99 1.95 3.11 3.10 6.60 3.80 10.14 2.33 14.51 1.17 29.19-1.21 43.02-.12.70-.86.92-1.77.28-6.92-11.85-16.03-16.56-27.48-23.76z"/>
  </g>
  
  <!-- 대둔근 (Gluteus Maximus) -->
  <g id="gluteus_maximus" class="muscle">
    <path d="M989.52 658.91c-3.89-8.90 1.12-21.48 3.19-30.01 2.88-11.83 5.33-23.78 8.85-35.39 1.90-6.26 4.32-12.34 7.01-18.27 7.55-16.59 12.39-34.80 14.85-53.31.75-5.61 3.17-20.96 9.95-21.34 11.99-.67 10.58 45.40 10.28 52.57-.66 16.19-3.28 32.48-5.92 48.42-3.57 21.46-7.89 42.82-12.48 64.01-1.46 6.71-2.97 13.72-8.12 18.11-5.63 4.80-22.55-11.84-25.51-24.09z"/>
    <path d="M1159.52 658.91c3.89-8.90-1.12-21.48-3.19-30.01-2.88-11.83-5.33-23.78-8.85-35.39-1.90-6.26-4.32-12.34-7.01-18.27-7.55-16.59-12.39-34.80-14.85-53.31-.75-5.61-3.17-20.96-9.95-21.34-11.99-.67-10.58 45.40-10.28 52.57.66 16.19 3.28 32.48 5.92 48.42 3.57 21.46 7.89 42.82 12.48 64.01 1.46 6.71 2.97 13.72 8.12 18.11 5.63 4.80 22.55-11.84 25.51-24.09z"/>
  </g>
  
  <!-- 햄스트링 (Hamstrings) -->
  <g id="hamstrings" class="muscle">
    <path d="M996.02 845.77c-1.64-9.11 1.40-21.34 2.95-30.03 2.16-12.07 3.91-24.18 7.08-35.96 1.72-6.36 4.08-12.44 6.78-18.34 7.60-16.56 12.37-34.83 15.00-53.38.80-5.63 3.16-20.97 9.94-21.34 11.99-.66 10.59 45.40 10.28 52.57-.66 16.19-3.28 32.49-5.92 48.43-3.57 21.46-7.89 42.82-12.48 64.01-1.45 6.71-2.97 13.72-8.12 18.11-5.63 4.80-22.55-11.84-25.51-24.07z"/>
    <path d="M1153.02 845.77c1.64-9.11-1.40-21.34-2.95-30.03-2.16-12.07-3.91-24.18-7.08-35.96-1.72-6.36-4.08-12.44-6.78-18.34-7.60-16.56-12.37-34.83-15.00-53.38-.80-5.63-3.16-20.97-9.94-21.34-11.99-.66-10.59 45.40-10.28 52.57.66 16.19 3.28 32.49 5.92 48.43 3.57 21.46 7.89 42.82 12.48 64.01 1.45 6.71 2.97 13.72 8.12 18.11 5.63 4.80 22.55-11.84 25.51-24.07z"/>
  </g>
  
  <!-- 삼두근 (Triceps) -->
  <g id="triceps" class="muscle">
    <path d="M931.03 442.29c-2.01 2.57-6.52 9.71-10.12 9.17-.35-.05-.62-.22-.80-.52-.90-1.39-1.54-2.82-1.84-4.44-2.25-10.87-3.28-22.88 1.35-33.38 5.45-12.33 18.27-23.68 29.61-31.20.31-.20.57-.07.71.32l6.42 38.52c.06.36-.05.71-.26.97-.47.58-1.12 1.52-1.71 1.94-6.07 4.39-12.19 8.73-18.08 13.36-1.93 1.47-3.79 3.31-5.28 5.26z"/>
    <path d="M1213.94 424.56c-1.35-1.00-2.49-2.01-3.08-3.02-.21-.31-.29-.68-.22-1.00 2.21-12.81 4.67-25.61 6.42-38.46.06-.37.27-.47.56-.25 9.93 6.55 18.48 14.20 24.80 22.71 9.80 12.75 9.72 30.37 5.41 45.13-.34.88-1.31 1.49-3.76 1.57-3.26-1.77-6.22-6.71-8.62-9.67-5.24-6.46-14.75-12.00-21.51-17.01z"/>
  </g>
  
  <!-- 목 (Neck) - Back -->
  <g id="neck_back" class="muscle">
    <path d="M1022.74 290.63c-.22-.38-.31-.72-.36-1.03 1.14-1.22 2.68-2.31 4.11-3.11 8.19-4.35 19.40-8.30 23.38-17.48 5.65-12.99 7.98-27.03 8.22-40.85-.03-2.92.21-4.38.57-5.76 1.98-4.38 9.65-3.66 13.85-2.91 4.30.76 4.71 3.25 4.68 7.30-.13 16.07-.47 32.14-.88 48.20-.12 4.25 1.60 15.84-4.88 16.32-14.57 1.08-32.60 1.81-48.69-.68z"/>
    <path d="M1095.75 291.46c-4.30-.25-4.90-3.99-4.95-7.71-.31-19.65-.68-39.30-1.00-58.94-.13-7.39 11.74-6.23 15.99-4.85 4.20 1.36 3.01 6.89 2.88 10.79-.28 8.88 5.15 41.10 15.32 46.78 5.73 3.21 11.51 6.28 17.27 9.51 1.31.73 2.35 1.58 3.26 2.36.27.23.27.84-.45 1.35-16.12 2.17-33.78 1.56-48.32.71z"/>
  </g>
  
  <!-- 종아리 (Calves) - Gastrocnemius -->
  <g id="calves" class="muscle">
    <path d="M975.52 1125.91c-1.57-18.10-2.85-36.24-5.51-54.25-.99-6.73-2.55-13.41-3.04-20.17-.25-3.42 1.84-5.05 4.58-5.69 6.81-1.57 7.91 7.81 8.51 12.36 2.32 17.39 4.24 34.89 5.28 52.39.43 7.26.43 14.57.36 21.84-.03 3.19-9.11 1.73-10.18-6.52z"/>
    <path d="M1173.52 1125.91c1.57-18.10 2.85-36.24 5.51-54.25.99-6.73 2.55-13.41 3.04-20.17.25-3.42-1.84-5.05-4.58-5.69-6.81-1.57-7.91 7.81-8.51 12.36-2.32 17.39-4.24 34.89-5.28 52.39-.43 7.26-.43 14.57-.36 21.84.03 3.19 9.11 1.73 10.18-6.52z"/>
  </g>
</svg>