<?xml version="1.0" encoding="UTF-8"?>
<svg xmlns="http://www.w3.org/2000/svg" viewBox="0 0 724 1448" style="background: #f8f8f8;">
  <style>
    .muscle { fill: #B6BDC3; cursor: pointer; transition: fill 0.2s; }
    .muscle:hover { fill: #757782; }
  </style>
  
  <!-- 몸통 윤곽선 -->
  <g id="body-outline" stroke="#dfdfdf" stroke-width="2" fill="none">
    <path d="M309.48 168.91c-3.64-4.59-6.16.85-6.16.85s10.99 30.27 17.19 39c1.83 2.57 3.5.21 4.07-1.48 0 0 .68 9.81 6.34 14.88 2.88 2.58 2.63 3.41 2.58 7.04-.24 15.65-2.95 27.31-2.95 27.31l-33.71 25.5s-14.81-.79-29.26-2.02-28.81-.67-41.56 7.82c-16.03 10.65-33.79 30.52-35.5 50.29-2.29 26.31 1.29 57.16 1.29 57.16"/>
  </g>
  
  <!-- 대흉근 (Pectoralis Major) -->
  <g id="pectoralis_major" class="muscle">
    <path d="M272.91 422.84c-18.95-17.19-22-57-12.64-78.79 5.57-12.99 26.54-24.37 39.97-25.87 13.57-1.51 26.06-.16 37.02.75 9.74 1.76 16.13 15.64 18.41 25.04 3.99 16.48 3.23 31.38 1.67 48.06-.9 9.57-1.66 13.88-2.05 16.89-6.52 23.5-38.08 29.23-58.28 24.53-9.12-2.12-17.24-4.38-24.1-10.61z"/>
    <path d="M416.04 435c-15.12.11-34.46-6.78-41.37-21.48-1.25-2.66-2.15-6.26-2.84-12.18-2.89-24.41-5.9-53.65 8.44-74.79 4.26-6.26 10.49-7.93 18.36-8.56 7.77-.61 15.55-.47 23.32-.35 10.58.53 18.02 2.74 26.62 7.87 12.81 7.65 19.73 14.52 22.67 29.75 4.94 25.57.24 64.14-28.21 74.97-8.17 3.11-17.53 4.66-26.99 4.77z"/>
  </g>
  
  <!-- 복직근 (Rectus Abdominis) -->
  <g id="rectus_abdominis" class="muscle">
    <path d="M311.02 531.71c-.13-.14-.19-.21-.19-.21-.26-6.98.51-13.98 1.9-20.76 1.26-5.69 7.66-9.9 13.1-12.9 9.09-5.01 18.93-11.15 28.56-14.92.51-.19.84.02.94.03 3.28 1.52 4.78 3.87 4.82 7.68.09 8.77-.02 17.54-.15 26.31-.08 3.85.78 8.39-.87 13.1-.11.31-.32.57-.59.72-1.77 1.1-3.31 1.56-4.29 1.82-14.04 1.48-28.15 2.04-43.23-.87z"/>
    <path d="M321 577.76c-5.17-.33-8.71-.44-10-6.26-2.13-9.63-1.39-18.56-.59-27.83.07-.35.32-.54.64-.63 7.58-1.44 13.62-2.45 22.45-4.56 7.67-1.84 15.57-2.14 23.94-1.88 3.67.26 3.3 3.46 3.4 6.21.31 8.37.24 17.98-.33 26.94-.17 2.94-.89 5.75-1.81 8.08-.14.33-.40.53-.73.6-.93.19-2.06.27-3.22.29-11.26.09-22.5.18-33.75-.96z"/>
    <path d="M350.35 712.81c-29.15-9.93-37.98-100.69-39.47-126.61a.99.99 0 01.33-.80c3.58-3.26 27.61-1.47 34.62-.93 4.41.34 15.27 1.31 15.26 7.53-.05 40.77.64 82.05-1.96 122.72a1.29 1.29 0 01-1.86 1.08c-2.3-1.14-4.12-2.04-6.92-2.99z"/>
    <path d="M416.32 584.73c.76.27 1.03.82 1.07 1.62-1.62 26.44-9.96 116.68-40.43 126.74-2.27.75-4.15 2.12-6.35 2.73-.79.22-1.09-.18-1.3-.89-.57-6.13-.88-11.85-1.06-17.75-.83-35.67-.91-71.2-1.01-106.88 0-.33.10-.64.31-.89 4.95-6.46 41.69-7.25 48.77-4.68z"/>
  </g>
  
  <!-- 복사근 (Obliques) - 좌우 대칭 -->
  <g id="obliques" class="muscle">
    <!-- Left side -->
    <path d="M264.21 435.53c-4.88-3.13-5.75-12.11-5.39-17.36.02-.35.22-.61.51-.75 1.2-.56 2.5-.29 3.43.85 6.7 6.97 15.29 12.23 22.57 16.9 3.64 1.89 5.54 3.62 4.79 7.8-.28 1.57-1.35 2.25-2.82 1.87-8.3-1.66-16.58-5.01-23.09-9.31z"/>
    <path d="M287.33 452.44c-4.05 4.46-10.38 11.38-16.28 14.3-.34.20-.68.05-.9-.10-6.29-5.17-12.54-18.97-14.21-25.09-.61-2.23-.16-5.57.85-8.81.08-.26.2-.33.35-.05 2.41 3.65 4.59 7.74 8.67 9.76 6.79 3.37 14.03 6.28 21.27 9.01.17.07.3.42.25.98z"/>
    <!-- Right side -->
    <path d="M438.7 444.36c-2.09-4.03-.13-6.83 3.63-8.81 10.22-5.36 16.79-11 24.23-18.07.38-.34.84-.25 1.03.10.33 4.74-.81 14.39-5.53 17.22-4.68 2.82-18.74 10.02-24.39 9.14-.38-.06-.67-.28-.83-.60-.14-.28-.14-.58-.14-.58z"/>
  </g>
  
  <!-- 대퇴사두근 (Quadriceps) -->
  <g id="quadriceps" class="muscle">
    <path d="M246.02 673.77c-1.98-10.44 1.69-24.46 3.57-34.43 2.61-13.83 4.72-27.70 8.57-41.19 2.08-7.28 4.92-14.25 8.19-21.00 9.18-18.93 14.94-39.89 18.14-61.09.97-6.42 3.82-24.03 12.02-24.47 14.49-.78 12.78 52.03 12.42 60.24-.80 18.54-3.97 37.24-7.16 55.47-4.31 24.58-9.54 49.08-15.09 73.32-1.76 7.69-3.59 15.73-9.82 20.76-6.81 5.50-26.08-13.58-30.84-27.61z"/>
    <path d="M429.02 673.77c1.98-10.44-1.69-24.46-3.57-34.43-2.61-13.83-4.72-27.70-8.57-41.19-2.08-7.28-4.92-14.25-8.19-21.00-9.18-18.93-14.94-39.89-18.14-61.09-.97-6.42-3.82-24.03-12.02-24.47-14.49-.78-12.78 52.03-12.42 60.24.80 18.54 3.97 37.24 7.16 55.47 4.31 24.58 9.54 49.08 15.09 73.32 1.76 7.69 3.59 15.73 9.82 20.76 6.81 5.50 26.08-13.58 30.84-27.61z"/>
  </g>
  
  <!-- 이두근 (Biceps) -->
  <g id="biceps" class="muscle">
    <path d="M189.52 492.51c-2.43.62-7.38.57-7.51-3.08-.56-16.01-.42-35.49 5.11-50.26 3.19-8.54 13.89-30.22 23.27-32.72 10.08-2.68 12.68 16.59 12.6 22.80-.22 15.98-7.51 34.79-15.05 48.71-4.29 7.94-9.95 12.38-18.42 14.55z"/>
    <path d="M526.69 486.31c-9.90-8.61-17.75-33.21-20.65-47.73-1.41-7.06-1.34-29.61 8.58-32.16 10.33-2.66 23.81 25.34 26.60 32.91 1.73 4.69 2.84 10.00 3.60 16.13 1.08 9.77 1.52 21.19 1.66 32.28.03 11.04-16.45 1.48-19.79-1.43z"/>
  </g>
  
  <!-- 목 (Neck) -->
  <g id="neck" class="muscle">
    <path d="M362.65 290.52c-.76-.91-1.41-2.06-1.86-3.41-3.55-10.10-8.50-20.18-12.14-29.75-2.37-5.06-1.07-9.07-7.92-10.99-.67-.19-.11-.39.02-.47 5.98-1.08 15.25.91 21.33 2 1.58.28 3.19.18 4.81-.09 6.73-1.42 13.59-1.98 20.45-2.12.07 0 .12.07.08.13-6.34 1.46-5.45 5.64-7.57 10.21-4.07 8.73-7.70 17.63-11.00 26.69-.87 2.41-1.99 4.70-2.90 6.81-.66.99-2.02 1.63-3.30.39z"/>
  </g>
  
  <!-- 전경골근 (Tibialis Anterior) -->
  <g id="tibialis_anterior" class="muscle">
    <path d="M257.52 954.91c-1.89-21.76-3.43-43.59-6.63-65.17-1.20-8.09-3.07-16.12-3.66-24.26-.30-4.11 2.22-6.07 5.51-6.83 8.19-1.89 9.51 9.38 10.24 14.85 2.79 20.90 5.09 41.94 6.35 62.98.52 8.72.52 17.51.43 26.26-.04 3.84-10.95 2.08-12.24-7.83z"/>
    <path d="M417.52 954.91c1.89-21.76 3.43-43.59 6.63-65.17 1.20-8.09 3.07-16.12 3.66-24.26.30-4.11-2.22-6.07-5.51-6.83-8.19-1.89-9.51 9.38-10.24 14.85-2.79 20.90-5.09 41.94-6.35 62.98-.52 8.72-.52 17.51-.43 26.26.04 3.84 10.95 2.08 12.24-7.83z"/>
  </g>
</svg>