<svg xmlns="http://www.w3.org/2000/svg" viewBox="0 0 300 600" width="300" height="600">
  <defs>
    <style>
      .body-outline { fill: #f5f5f5; stroke: #333; stroke-width: 1.5; }
      .muscle-region { 
        fill: #f2f2f2; 
        stroke: #666; 
        stroke-width: 1.2; 
        cursor: pointer; 
        transition: all 0.3s ease;
        filter: drop-shadow(0 2px 4px rgba(0,0,0,0.1));
      }
      .muscle-region:hover { 
        opacity: 0.85;
        filter: drop-shadow(0 4px 8px rgba(0,0,0,0.2));
        stroke-width: 2;
      }
      .skin-tone { fill: #ffd5b4; }
      .muscle-group { opacity: 0.95; }
    </style>
    
    <!-- 그라데이션 효과 -->
    <linearGradient id="muscleGrad" x1="0%" y1="0%" x2="0%" y2="100%">
      <stop offset="0%" style="stop-color:#f2f2f2;stop-opacity:1" />
      <stop offset="100%" style="stop-color:#e0e0e0;stop-opacity:1" />
    </linearGradient>
  </defs>
  
  <!-- 배경 실루엣 -->
  <g class="body-outline">
    <!-- 머리 -->
    <ellipse cx="150" cy="45" rx="28" ry="35" class="skin-tone"/>
    <ellipse cx="150" cy="40" rx="25" ry="30" fill="#333"/>
    
    <!-- 목 -->
    <path d="M 135 70 Q 150 75 165 70 L 165 95 L 135 95 Z" class="skin-tone"/>
  </g>
  
  <!-- 목 굴곡근 -->
  <ellipse id="m_neck_flexors" cx="150" cy="82" rx="14" ry="12" 
    class="muscle-region muscle-group" data-muscle="neck_flexors"/>
  
  <!-- 몸통 상부 기본 형태 -->
  <path d="M 135 95 Q 85 100 70 135 Q 65 170 75 200 L 90 200 L 90 135 Q 105 105 135 95 Z" class="body-outline"/>
  <path d="M 165 95 Q 215 100 230 135 Q 235 170 225 200 L 210 200 L 210 135 Q 195 105 165 95 Z" class="body-outline"/>
  
  <!-- 전면 삼각근 (어깨) - 입체감 -->
  <g class="muscle-group">
    <ellipse id="m_anterior_delt_left" cx="80" cy="125" rx="24" ry="30" 
      class="muscle-region" data-muscle="anterior_delt" 
      transform="rotate(-15 80 125)"/>
    <ellipse id="m_anterior_delt_right" cx="220" cy="125" rx="24" ry="30" 
      class="muscle-region" data-muscle="anterior_delt"
      transform="rotate(15 220 125)"/>
  </g>
  
  <!-- 대흉근 - 더 사실적인 형태 -->
  <g class="muscle-group">
    <!-- 왼쪽 대흉근 상부 -->
    <path id="m_pec_major_left_upper" 
      d="M 125 105 Q 110 110 105 125 Q 105 140 115 150 Q 130 145 140 135 Q 145 120 125 105 Z"
      class="muscle-region" data-muscle="pec_major"/>
    <!-- 왼쪽 대흉근 하부 -->
    <path id="m_pec_major_left_lower"
      d="M 115 150 Q 105 160 110 175 Q 120 185 135 180 Q 140 170 140 155 Q 130 150 115 150 Z"
      class="muscle-region" data-muscle="pec_major"/>
    
    <!-- 오른쪽 대흉근 상부 -->
    <path id="m_pec_major_right_upper"
      d="M 175 105 Q 190 110 195 125 Q 195 140 185 150 Q 170 145 160 135 Q 155 120 175 105 Z"
      class="muscle-region" data-muscle="pec_major"/>
    <!-- 오른쪽 대흉근 하부 -->
    <path id="m_pec_major_right_lower"
      d="M 185 150 Q 195 160 190 175 Q 180 185 165 180 Q 160 170 160 155 Q 170 150 185 150 Z"
      class="muscle-region" data-muscle="pec_major"/>
  </g>
  
  <!-- 몸통 중앙부 -->
  <rect x="130" y="185" width="40" height="140" rx="5" class="body-outline"/>
  
  <!-- 복직근 (6팩) - 디테일 추가 -->
  <g class="muscle-group">
    <!-- 상부 복근 -->
    <rect id="m_abs_upper_left" x="135" y="190" width="13" height="20" rx="3"
      class="muscle-region" data-muscle="abs"/>
    <rect id="m_abs_upper_right" x="152" y="190" width="13" height="20" rx="3"
      class="muscle-region" data-muscle="abs"/>
    
    <!-- 중부 복근 -->
    <rect id="m_abs_mid_left" x="137" y="215" width="12" height="22" rx="3"
      class="muscle-region" data-muscle="abs"/>
    <rect id="m_abs_mid_right" x="151" y="215" width="12" height="22" rx="3"
      class="muscle-region" data-muscle="abs"/>
    
    <!-- 하부 복근 -->
    <rect id="m_abs_lower_left" x="138" y="242" width="11" height="24" rx="3"
      class="muscle-region" data-muscle="abs"/>
    <rect id="m_abs_lower_right" x="151" y="242" width="11" height="24" rx="3"
      class="muscle-region" data-muscle="abs"/>
    
    <!-- 최하부 복근 -->
    <path id="m_abs_lowest_left"
      d="M 139 270 Q 138 280 140 290 L 148 290 Q 148 280 147 270 Z"
      class="muscle-region" data-muscle="abs"/>
    <path id="m_abs_lowest_right"
      d="M 153 270 Q 152 280 152 290 L 160 290 Q 162 280 161 270 Z"
      class="muscle-region" data-muscle="abs"/>
  </g>
  
  <!-- 팔 -->
  <rect x="65" y="135" width="18" height="130" rx="9" class="body-outline"/>
  <rect x="217" y="135" width="18" height="130" rx="9" class="body-outline"/>
  
  <!-- 전완 -->
  <path d="M 70 265 Q 68 300 72 330 Q 75 340 75 345 L 80 345 Q 80 340 78 330 Q 75 300 78 265 Z" class="body-outline"/>
  <path d="M 230 265 Q 232 300 228 330 Q 225 340 225 345 L 220 345 Q 220 340 222 330 Q 225 300 222 265 Z" class="body-outline"/>
  
  <!-- 손 -->
  <ellipse cx="77" cy="350" rx="7" ry="10" class="skin-tone"/>
  <ellipse cx="223" cy="350" rx="7" ry="10" class="skin-tone"/>
  
  <!-- 골반 부위 -->
  <ellipse cx="150" cy="340" rx="55" ry="45" class="body-outline"/>
  
  <!-- 고관절 굴곡근 -->
  <g class="muscle-group">
    <ellipse id="m_hip_flexors_left" cx="130" cy="350" rx="16" ry="28"
      class="muscle-region" data-muscle="hip_flexors" transform="rotate(-8 130 350)"/>
    <ellipse id="m_hip_flexors_right" cx="170" cy="350" rx="16" ry="28"
      class="muscle-region" data-muscle="hip_flexors" transform="rotate(8 170 350)"/>
  </g>
  
  <!-- 허벅지 -->
  <g>
    <!-- 왼쪽 허벅지 -->
    <path d="M 115 380 Q 110 450 115 520 Q 118 540 120 555 L 135 555 Q 135 540 133 520 Q 130 450 127 380 Z" class="body-outline"/>
    <!-- 오른쪽 허벅지 -->
    <path d="M 185 380 Q 190 450 185 520 Q 182 540 180 555 L 165 555 Q 165 540 167 520 Q 170 450 173 380 Z" class="body-outline"/>
  </g>
  
  <!-- 대퇴사두근 - 4개 근육으로 분리 -->
  <g class="muscle-group">
    <!-- 왼쪽 대퇴사두근 -->
    <path id="m_quadriceps_left_1"
      d="M 118 385 Q 115 430 118 470 L 122 470 Q 120 430 122 385 Z"
      class="muscle-region" data-muscle="quadriceps"/>
    <path id="m_quadriceps_left_2"
      d="M 123 385 Q 120 430 122 480 L 126 480 Q 125 430 127 385 Z"
      class="muscle-region" data-muscle="quadriceps"/>
    <path id="m_quadriceps_left_3"
      d="M 127 385 Q 125 440 127 490 L 131 490 Q 130 440 132 385 Z"
      class="muscle-region" data-muscle="quadriceps"/>
    
    <!-- 오른쪽 대퇴사두근 -->
    <path id="m_quadriceps_right_1"
      d="M 182 385 Q 185 430 182 470 L 178 470 Q 180 430 178 385 Z"
      class="muscle-region" data-muscle="quadriceps"/>
    <path id="m_quadriceps_right_2"
      d="M 177 385 Q 180 430 178 480 L 174 480 Q 175 430 173 385 Z"
      class="muscle-region" data-muscle="quadriceps"/>
    <path id="m_quadriceps_right_3"
      d="M 173 385 Q 175 440 173 490 L 169 490 Q 170 440 168 385 Z"
      class="muscle-region" data-muscle="quadriceps"/>
  </g>
  
  <!-- 종아리 -->
  <g>
    <path d="M 120 555 Q 118 570 120 585 Q 122 593 123 598 L 127 598 Q 128 593 127 585 Q 126 570 128 555 Z" class="body-outline"/>
    <path d="M 180 555 Q 182 570 180 585 Q 178 593 177 598 L 173 598 Q 172 593 173 585 Q 174 570 172 555 Z" class="body-outline"/>
  </g>
  
  <!-- 발 -->
  <ellipse cx="125" cy="598" rx="10" ry="6" class="skin-tone"/>
  <ellipse cx="175" cy="598" rx="10" ry="6" class="skin-tone"/>
  
  <!-- 장식용 근육 선 (디테일) -->
  <g stroke="#999" stroke-width="0.5" fill="none" opacity="0.3">
    <!-- 복부 중앙선 -->
    <line x1="150" y1="190" x2="150" y2="310"/>
    <!-- 대흉근 윤곽 -->
    <path d="M 150 110 Q 130 120 120 140"/>
    <path d="M 150 110 Q 170 120 180 140"/>
  </g>
</svg>
